<svg xmlns="http://www.w3.org/2000/svg" width="200" fill="none" viewBox="0 0 226 30">
  <path fill="currentColor" d="M83.2 17.7c0 2.1 1 3.4 4 3.4 1 0 2-.1 2.9-.4 1.2-.3 1.5 0 1.5 1.2v.2c0 1.2-.3 1.5-1.5 2-1 .2-2 .4-3 .3-5 0-7.6-2-7.6-6.7v-4.2c0-4.4 2.5-7 7.6-7 1 0 2 .1 3 .5 1.2.4 1.5.7 1.5 1.9V9c0 1.3-.4 1.5-1.6 1.2-1-.3-2-.4-3-.5-2.7 0-3.8 1.2-3.8 3.7v4.2ZM105.5 17.3c-.1 1.2-.5 1.4-1.7 1.4H97v.4c0 1.4 1 2 3.5 2 1 0 2.2 0 3.2-.3 1.2-.3 1.4 0 1.4 1.3v.2c0 1.2-.2 1.5-1.4 1.8-1 .2-2.1.4-3.2.3-4.8 0-7-1.7-7-5.8v-2.1c0-4 2-6 6.2-6 4 0 5.9 1.9 5.9 5.7l-.1 1ZM97 15.9h5.2v-.4c0-1.4-.8-2-2.6-2-1.7 0-2.6.6-2.6 2v.4ZM107.9 7c0-1.3.3-1.5 1.5-1.5h.5c1.2 0 1.5.2 1.5 1.4v12.4c0 1.4.3 1.8 1.1 1.8h.2c.7 0 .9.2.9 1.2v.5c0 1-.2 1.4-1 1.5h-.7c-2.5 0-4-1.3-4-4.2V6.9ZM115.2 7c0-1.3.3-1.5 1.5-1.5h.5c1.2 0 1.4.2 1.4 1.4v12.4c0 1.4.4 1.8 1.2 1.8h.2c.7 0 .9.2.9 1.2v.5c0 1-.2 1.4-1 1.5h-.7c-2.5 0-4-1.3-4-4.2V6.9ZM121.5 11.8c0-.4.1-.5.5-.6l1.7-.2V8.7c0-2.4 1.4-3.7 4.2-3.7.8 0 1.6 0 2.3.3.5 0 .6.2.6.7V6c0 .5-.2.6-.6.5-.7-.2-1.5-.3-2.3-.3-1.8 0-2.8.8-2.8 2.4V11h4.7c.5 0 .7.2.7.7 0 .6-.2.7-.7.7h-4.7v11c0 .6-.1.7-.6.7h-.1c-.6 0-.7-.1-.7-.6V12.4H122c-.3 0-.5-.2-.5-.5v-.1ZM132.3 18.9v-2.6c0-3.5 1.6-5.5 5.6-5.5 4 0 5.7 2 5.7 5.5v2.6c0 3.5-1.7 5.4-5.7 5.4s-5.6-1.9-5.6-5.4Zm9.8-2.6c0-2.9-1-4.2-4.2-4.2s-4.2 1.3-4.2 4.2v2.6c0 2.8 1 4.1 4.2 4.1s4.2-1.3 4.2-4.1v-2.6ZM148 23.5c0 .5-.1.6-.6.6h-.1c-.5 0-.7-.1-.7-.6v-8.2c0-3 1.4-4.5 4.2-4.5h1c.6.2.7.3.7.7v.2c0 .5-.2.6-.7.5h-1c-2 0-2.8 1-2.8 3.2v8ZM156 23.5c0 .5-.2.6-.7.6h-.1c-.5 0-.7-.1-.7-.6v-7.9c0-3.2 1.7-4.8 4.9-4.8 2.2 0 3.6.8 4.1 2.4.6-1.6 2-2.4 4.2-2.4 3.5 0 4.8 1.7 4.8 4.8v7.9c0 .5 0 .6-.6.6h-.1c-.5 0-.7-.1-.7-.6v-7.9c0-2.3-.8-3.5-3.4-3.5-2.6 0-3.5 1.2-3.5 3.5v7.9c0 .5 0 .6-.6.6h-.1c-.5 0-.7-.1-.7-.6v-7.9c0-2.3-.8-3.5-3.4-3.5-2.6 0-3.4 1.2-3.4 3.5v7.9ZM185.5 20.2c0 3-1.7 4.1-5.5 4.1-2.6 0-4.7-1.2-4.7-3.8 0-2.7 1.8-3.9 5.5-3.9h3.3v-1.8c0-2-1.3-2.7-3.7-2.7-1.1 0-2.2.1-3.2.4-.5 0-.6 0-.6-.5v-.2c0-.5.1-.6.6-.7l3-.3c3.6 0 5.3 1.3 5.3 4v5.4Zm-1.4-2.4h-3.3c-2.8 0-4 .7-4 2.7 0 1.7 1 2.6 3.2 2.6 2.9 0 4.1-.7 4.1-3v-2.3ZM187.3 11.8c0-.4 0-.5.5-.6l1.7-.2.3-3c0-.3.2-.4.5-.4h.1c.4 0 .5.1.5.5v3h4.8c.5 0 .6.1.6.6s-.1.7-.6.7h-4.8v7.3c0 2.4 1 3.3 2.8 3.3a9 9 0 0 0 2.5-.3c.4-.2.6 0 .6.5s-.2.7-.6.8a9 9 0 0 1-2.5.3c-2.8 0-4.2-1.5-4.2-4.6v-7.3h-1.7c-.4 0-.5-.2-.5-.5v-.1ZM200.2 6a.9.9 0 0 1 1 .8 1 1 0 0 1-.3.7 1 1 0 0 1-1.4 0 1 1 0 0 1-.3-1 1 1 0 0 1 1-.6Zm-.7 5.7c0-.5.1-.7.6-.7h.1c.6 0 .7.2.7.7v11.8c0 .5-.1.6-.7.6s-.7-.1-.7-.6V11.7ZM204.4 16.2c0-3.6 1.9-5.4 5.7-5.4a7 7 0 0 1 2.6.5c.5.1.6.2.6.7v.1c0 .5-.2.6-.6.5-.8-.3-1.7-.5-2.5-.5-3.3 0-4.4 1.5-4.4 4.1V19c0 3 1.3 4.1 4.5 4.1.9 0 1.8-.1 2.7-.4.4-.1.6 0 .6.4v.2c0 .5-.1.5-.6.7-1 .3-1.9.5-2.8.4-4 0-5.8-1.6-5.8-5.4v-2.7ZM225.5 20.2c0 3-1.7 4.1-5.5 4.1-2.7 0-4.7-1.2-4.7-3.8 0-2.7 1.7-3.9 5.5-3.9h3.3v-1.8c0-2-1.3-2.7-3.8-2.7-1 0-2.1.1-3.2.4-.4 0-.6 0-.6-.5v-.2c0-.5.2-.6.6-.7 1-.2 2.1-.3 3.1-.3 3.5 0 5.3 1.3 5.3 4v5.4Zm-1.4-2.4h-3.3c-2.8 0-4 .7-4 2.7 0 1.7 1 2.6 3.2 2.6 2.9 0 4-.7 4-3v-2.3Z"/>
  <path fill="url(#a)" d="M46.6 7.4c-1.3 1-2.4 2.5-3.7 3.5-7.4 5.3-13.3-3.7-18.3-7.7C15.1-4.6.5 2.9.5 15a15 15 0 0 0 15 15c4-.2 7.7-1.8 10.6-4.5 2.9-2.6 4.8-6 8.6-7.4a8.5 8.5 0 0 1 7.5.6c1.9 1.2 3.2 3.1 5 4.3a9.2 9.2 0 0 0 12.3-2.3c1.3-1.7 2-3.7 2-5.7 0-7.4-8.9-12.3-14.9-7.6Z"/>
  <defs>
    <linearGradient id="a" x1="5.7" x2="15.6" y1="31.7" y2="-4" gradientUnits="userSpaceOnUse">
      <stop stop-color="#D1145B"/>
      <stop offset="1" stop-color="#7F2373"/>
    </linearGradient>
  </defs>
</svg>
